<svg width="512" height="512" viewBox="0 0 512 512" fill="none" xmlns="http://www.w3.org/2000/svg">
<g clip-path="url(#clip0_2_2)">
<path d="M212.442 25.2664C234.602 -2.14768 276.398 -2.14768 298.558 25.2664V25.2664C312.327 42.2993 334.842 49.6149 355.993 43.928V43.928C390.035 34.7751 423.848 59.3422 425.663 94.5462V94.5462C426.79 116.419 440.705 135.572 461.159 143.403V143.403C494.08 156.007 506.995 195.758 487.771 225.305V225.305C475.826 243.663 475.826 267.337 487.771 285.695V285.695C506.995 315.242 494.08 354.993 461.159 367.597V367.597C440.705 375.428 426.79 394.581 425.663 416.454V416.454C423.848 451.658 390.035 476.225 355.993 467.072V467.072C334.842 461.385 312.327 468.701 298.558 485.734V485.734C276.398 513.148 234.602 513.148 212.442 485.734V485.734C198.673 468.701 176.158 461.385 155.007 467.072V467.072C120.965 476.225 87.1517 451.658 85.3371 416.454V416.454C84.2097 394.581 70.2946 375.428 49.8406 367.597V367.597C16.9203 354.993 4.00468 315.242 23.2291 285.695V285.695C35.1735 267.337 35.1735 243.663 23.2291 225.305V225.305C4.00468 195.758 16.9203 156.007 49.8406 143.403V143.403C70.2946 135.572 84.2097 116.419 85.3371 94.5462V94.5462C87.1517 59.3422 120.965 34.7751 155.007 43.928V43.928C176.158 49.6149 198.673 42.2993 212.442 25.2664V25.2664Z" fill="#0F4398"/>
<path d="M256 256C344.352 256 423.28 296.345 475.368 359.617C471.176 362.869 466.424 365.581 461.159 367.597C440.705 375.428 426.791 394.581 425.663 416.454C423.848 451.658 390.035 476.225 355.993 467.072C334.842 461.385 312.327 468.701 298.559 485.733C276.398 513.147 234.602 513.147 212.441 485.733C198.673 468.701 176.158 461.385 155.007 467.072C120.965 476.225 87.1517 451.658 85.3369 416.454C84.2095 394.581 70.2948 375.428 49.8408 367.597C44.8313 365.679 40.2864 363.13 36.2461 360.087C88.3294 296.545 167.43 256 256 256Z" fill="#477AD6"/>
<rect x="96" y="169.84" width="20" height="120" transform="rotate(-20 96 169.84)" fill="#477AD6"/>
<rect x="397.042" y="163" width="20" height="120" transform="rotate(20 397.042 163)" fill="#477AD6"/>
<circle cx="156" cy="340" r="20" fill="white"/>
<circle cx="356" cy="340" r="20" fill="white"/>
</g>
<defs>
<clipPath id="clip0_2_2">
<rect width="512" height="512" fill="white"/>
</clipPath>
</defs>
</svg>
